# xmcd
#
# Track frame offsets: 
#        150
#        23139
#        44289
#        65907
#        88974
#        114058
#        136995
#        156790
#        180763
#        202071
#        222349
#        243320
#        264850
#
# Disc length: 3784 seconds
#
# Revision: 0
# Processed by: cddbd v1.5.2PL0 Copyright (c) Steve Scherf et al.
# Submitted via: ExactAudioCopy v1.0b3
#
DISCID=b00ec60d
DTITLE=城 南海 - 綾蝶～アヤハブラ～
DYEAR=2014
DGENRE=Pop
TTITLE0=ずっとずっと 
TTITLE1=チョネジア～天崖至目我～
TTITLE2=童神～私の宝物～
TTITLE3=ウタゴエ
TTITLE4=SILENCE
TTITLE5=ルナ・レガーロ～月からの贈り物～
TTITLE6=小夜啼鳥 sayonakidori
TTITLE7=夢の地図
TTITLE8=夢待列車 yumemachiressha
TTITLE9=兆し
TTITLE10=ハルカゼ
TTITLE11=私大陸
TTITLE12=ヒカリあれ
EXTD=
EXTT0=
EXTT1=
EXTT2=
EXTT3=
EXTT4=
EXTT5=
EXTT6=
EXTT7=
EXTT8=
EXTT9=
EXTT10=
EXTT11=
EXTT12=
PLAYORDER=
